# MagicaVoxel @ Ephtracy

# material
mtllib Floor_2.mtl
usemtl palette

# normals
vn -1 0 0
vn 1 0 0
vn 0 0 1
vn 0 0 -1
vn 0 -1 0
vn 0 1 0

# texcoords
vt 0.970703 0.5
vt 0.986328 0.5
vt 0.990234 0.5

# verts
v -62 0 60
v -62 0 -58
v -62 5 60
v -62 5 -58
v 57 3 60
v 57 3 47
v 57 3 32
v 57 3 17
v 57 3 2
v 57 3 -13
v 57 3 -28
v 57 3 -43
v 57 3 -58
v 57 5 60
v 57 5 -58
v -58 3 60
v -58 3 47
v -58 3 32
v -58 3 17
v -58 3 2
v -58 3 -13
v -58 3 -28
v -58 3 -43
v -58 3 -58
v -58 5 60
v -58 5 -58
v 61 0 60
v 61 0 -58
v 61 5 60
v 61 5 -58
v -62 0 60
v -62 5 60
v -60 0 60
v -60 3 60
v -58 3 60
v -58 5 60
v -46 0 60
v -46 3 60
v -31 0 60
v -31 3 60
v -16 0 60
v -16 3 60
v -1 0 60
v -1 3 60
v 14 0 60
v 14 3 60
v 29 0 60
v 29 3 60
v 44 0 60
v 44 3 60
v 57 3 60
v 57 5 60
v 59 0 60
v 59 3 60
v 61 0 60
v 61 5 60
v -62 0 -58
v -62 5 -58
v -59 0 -58
v -59 3 -58
v -58 3 -58
v -58 5 -58
v -46 0 -58
v -46 3 -58
v -31 0 -58
v -31 3 -58
v -16 0 -58
v -16 3 -58
v -1 0 -58
v -1 3 -58
v 14 0 -58
v 14 3 -58
v 29 0 -58
v 29 3 -58
v 44 0 -58
v 44 3 -58
v 57 3 -58
v 57 5 -58
v 59 0 -58
v 59 3 -58
v 61 0 -58
v 61 5 -58
v -62 0 60
v -60 0 60
v -46 0 60
v -31 0 60
v -16 0 60
v -1 0 60
v 14 0 60
v 29 0 60
v 44 0 60
v 59 0 60
v 61 0 60
v -60 0 47
v -46 0 47
v -31 0 47
v -16 0 47
v -1 0 47
v 14 0 47
v 29 0 47
v 44 0 47
v 59 0 47
v -60 0 32
v -46 0 32
v -31 0 32
v -16 0 32
v -1 0 32
v 14 0 32
v 29 0 32
v 44 0 32
v 59 0 32
v -60 0 17
v -46 0 17
v -31 0 17
v -16 0 17
v -1 0 17
v 14 0 17
v 29 0 17
v 44 0 17
v 59 0 17
v -60 0 2
v -46 0 2
v -31 0 2
v -16 0 2
v -1 0 2
v 14 0 2
v 29 0 2
v 44 0 2
v 59 0 2
v -60 0 -13
v -46 0 -13
v -31 0 -13
v -16 0 -13
v -1 0 -13
v 14 0 -13
v 29 0 -13
v 44 0 -13
v 59 0 -13
v -60 0 -28
v -46 0 -28
v -31 0 -28
v -16 0 -28
v -1 0 -28
v 14 0 -28
v 29 0 -28
v 44 0 -28
v 59 0 -28
v -60 0 -43
v -46 0 -43
v -31 0 -43
v -16 0 -43
v -1 0 -43
v 14 0 -43
v 29 0 -43
v 44 0 -43
v 59 0 -43
v -60 0 -57
v -59 0 -57
v -62 0 -58
v -59 0 -58
v -46 0 -58
v -31 0 -58
v -16 0 -58
v -1 0 -58
v 14 0 -58
v 29 0 -58
v 44 0 -58
v 59 0 -58
v 61 0 -58
v -58 3 60
v -46 3 60
v -31 3 60
v -16 3 60
v -1 3 60
v 14 3 60
v 29 3 60
v 44 3 60
v 57 3 60
v -58 3 47
v -46 3 47
v -31 3 47
v -16 3 47
v -1 3 47
v 14 3 47
v 29 3 47
v 44 3 47
v 57 3 47
v -58 3 32
v -46 3 32
v -31 3 32
v -16 3 32
v -1 3 32
v 14 3 32
v 29 3 32
v 44 3 32
v 57 3 32
v -58 3 17
v -46 3 17
v -31 3 17
v -16 3 17
v -1 3 17
v 14 3 17
v 29 3 17
v 44 3 17
v 57 3 17
v -58 3 2
v -46 3 2
v -31 3 2
v -16 3 2
v -1 3 2
v 14 3 2
v 29 3 2
v 44 3 2
v 57 3 2
v -58 3 -13
v -46 3 -13
v -31 3 -13
v -16 3 -13
v -1 3 -13
v 14 3 -13
v 29 3 -13
v 44 3 -13
v 57 3 -13
v -58 3 -28
v -46 3 -28
v -31 3 -28
v -16 3 -28
v -1 3 -28
v 14 3 -28
v 29 3 -28
v 44 3 -28
v 57 3 -28
v -58 3 -43
v -46 3 -43
v -31 3 -43
v -16 3 -43
v -1 3 -43
v 14 3 -43
v 29 3 -43
v 44 3 -43
v 57 3 -43
v -58 3 -58
v -46 3 -58
v -31 3 -58
v -16 3 -58
v -1 3 -58
v 14 3 -58
v 29 3 -58
v 44 3 -58
v 57 3 -58
v -62 5 60
v -58 5 60
v 57 5 60
v 61 5 60
v -62 5 -58
v -58 5 -58
v 57 5 -58
v 61 5 -58

# faces
f 3/1/1 2/1/1 1/1/1
f 4/1/1 2/1/1 3/1/1
f 14/1/1 6/1/1 5/1/1
f 14/1/1 13/1/1 12/1/1
f 14/1/1 12/1/1 11/1/1
f 14/1/1 11/1/1 10/1/1
f 14/1/1 10/1/1 9/1/1
f 14/1/1 9/1/1 8/1/1
f 14/1/1 8/1/1 7/1/1
f 14/1/1 7/1/1 6/1/1
f 15/1/1 13/1/1 14/1/1
f 16/1/2 17/1/2 25/1/2
f 23/1/2 24/1/2 25/1/2
f 22/1/2 23/1/2 25/1/2
f 21/1/2 22/1/2 25/1/2
f 20/1/2 21/1/2 25/1/2
f 19/1/2 20/1/2 25/1/2
f 18/1/2 19/1/2 25/1/2
f 17/1/2 18/1/2 25/1/2
f 25/1/2 24/1/2 26/1/2
f 27/1/2 28/1/2 29/1/2
f 29/1/2 28/1/2 30/1/2
f 33/1/3 32/1/3 31/1/3
f 34/1/3 32/1/3 33/1/3
f 35/3/3 34/3/3 33/3/3
f 35/1/3 32/1/3 34/1/3
f 36/1/3 32/1/3 35/1/3
f 37/3/3 35/3/3 33/3/3
f 38/3/3 35/3/3 37/3/3
f 39/2/3 38/2/3 37/2/3
f 40/2/3 38/2/3 39/2/3
f 41/3/3 40/3/3 39/3/3
f 42/3/3 40/3/3 41/3/3
f 43/2/3 42/2/3 41/2/3
f 44/2/3 42/2/3 43/2/3
f 45/3/3 44/3/3 43/3/3
f 46/3/3 44/3/3 45/3/3
f 47/2/3 46/2/3 45/2/3
f 48/2/3 46/2/3 47/2/3
f 49/3/3 48/3/3 47/3/3
f 50/3/3 48/3/3 49/3/3
f 51/2/3 50/2/3 49/2/3
f 53/2/3 51/2/3 49/2/3
f 54/1/3 52/1/3 51/1/3
f 54/2/3 51/2/3 53/2/3
f 55/1/3 54/1/3 53/1/3
f 56/1/3 52/1/3 54/1/3
f 56/1/3 54/1/3 55/1/3
f 57/1/4 58/1/4 59/1/4
f 59/1/4 58/1/4 60/1/4
f 59/2/4 60/2/4 61/2/4
f 60/1/4 58/1/4 61/1/4
f 61/1/4 58/1/4 62/1/4
f 59/2/4 61/2/4 63/2/4
f 63/2/4 61/2/4 64/2/4
f 63/3/4 64/3/4 65/3/4
f 65/3/4 64/3/4 66/3/4
f 65/2/4 66/2/4 67/2/4
f 67/2/4 66/2/4 68/2/4
f 67/3/4 68/3/4 69/3/4
f 69/3/4 68/3/4 70/3/4
f 69/2/4 70/2/4 71/2/4
f 71/2/4 70/2/4 72/2/4
f 71/3/4 72/3/4 73/3/4
f 73/3/4 72/3/4 74/3/4
f 73/2/4 74/2/4 75/2/4
f 75/2/4 74/2/4 76/2/4
f 75/3/4 76/3/4 77/3/4
f 75/3/4 77/3/4 79/3/4
f 77/1/4 78/1/4 80/1/4
f 79/3/4 77/3/4 80/3/4
f 79/1/4 80/1/4 81/1/4
f 80/1/4 78/1/4 82/1/4
f 81/1/4 80/1/4 82/1/4
f 94/1/5 84/1/5 83/1/5
f 94/3/5 85/3/5 84/3/5
f 95/2/5 86/2/5 85/2/5
f 95/3/5 85/3/5 94/3/5
f 96/3/5 87/3/5 86/3/5
f 96/2/5 86/2/5 95/2/5
f 97/2/5 88/2/5 87/2/5
f 97/3/5 87/3/5 96/3/5
f 98/3/5 89/3/5 88/3/5
f 98/2/5 88/2/5 97/2/5
f 99/2/5 90/2/5 89/2/5
f 99/3/5 89/3/5 98/3/5
f 100/3/5 91/3/5 90/3/5
f 100/2/5 90/2/5 99/2/5
f 101/2/5 92/2/5 91/2/5
f 101/3/5 91/3/5 100/3/5
f 102/1/5 93/1/5 92/1/5
f 102/2/5 92/2/5 101/2/5
f 103/1/5 94/1/5 83/1/5
f 103/2/5 95/2/5 94/2/5
f 104/3/5 96/3/5 95/3/5
f 104/2/5 95/2/5 103/2/5
f 105/2/5 97/2/5 96/2/5
f 105/3/5 96/3/5 104/3/5
f 106/3/5 98/3/5 97/3/5
f 106/2/5 97/2/5 105/2/5
f 107/2/5 99/2/5 98/2/5
f 107/3/5 98/3/5 106/3/5
f 108/3/5 100/3/5 99/3/5
f 108/2/5 99/2/5 107/2/5
f 109/2/5 101/2/5 100/2/5
f 109/3/5 100/3/5 108/3/5
f 110/3/5 102/3/5 101/3/5
f 110/2/5 101/2/5 109/2/5
f 111/1/5 93/1/5 102/1/5
f 111/3/5 102/3/5 110/3/5
f 112/1/5 103/1/5 83/1/5
f 112/3/5 104/3/5 103/3/5
f 113/2/5 105/2/5 104/2/5
f 113/3/5 104/3/5 112/3/5
f 114/3/5 106/3/5 105/3/5
f 114/2/5 105/2/5 113/2/5
f 115/2/5 107/2/5 106/2/5
f 115/3/5 106/3/5 114/3/5
f 116/3/5 108/3/5 107/3/5
f 116/2/5 107/2/5 115/2/5
f 117/2/5 109/2/5 108/2/5
f 117/3/5 108/3/5 116/3/5
f 118/3/5 110/3/5 109/3/5
f 118/2/5 109/2/5 117/2/5
f 119/2/5 111/2/5 110/2/5
f 119/3/5 110/3/5 118/3/5
f 120/1/5 93/1/5 111/1/5
f 120/2/5 111/2/5 119/2/5
f 121/1/5 112/1/5 83/1/5
f 121/2/5 113/2/5 112/2/5
f 122/3/5 114/3/5 113/3/5
f 122/2/5 113/2/5 121/2/5
f 123/2/5 115/2/5 114/2/5
f 123/3/5 114/3/5 122/3/5
f 124/3/5 116/3/5 115/3/5
f 124/2/5 115/2/5 123/2/5
f 125/2/5 117/2/5 116/2/5
f 125/3/5 116/3/5 124/3/5
f 126/3/5 118/3/5 117/3/5
f 126/2/5 117/2/5 125/2/5
f 127/2/5 119/2/5 118/2/5
f 127/3/5 118/3/5 126/3/5
f 128/3/5 120/3/5 119/3/5
f 128/2/5 119/2/5 127/2/5
f 129/1/5 93/1/5 120/1/5
f 129/3/5 120/3/5 128/3/5
f 130/3/5 122/3/5 121/3/5
f 130/1/5 121/1/5 83/1/5
f 131/2/5 123/2/5 122/2/5
f 131/3/5 122/3/5 130/3/5
f 132/3/5 124/3/5 123/3/5
f 132/2/5 123/2/5 131/2/5
f 133/2/5 125/2/5 124/2/5
f 133/3/5 124/3/5 132/3/5
f 134/3/5 126/3/5 125/3/5
f 134/2/5 125/2/5 133/2/5
f 135/2/5 127/2/5 126/2/5
f 135/3/5 126/3/5 134/3/5
f 136/3/5 128/3/5 127/3/5
f 136/2/5 127/2/5 135/2/5
f 137/2/5 129/2/5 128/2/5
f 137/3/5 128/3/5 136/3/5
f 138/1/5 93/1/5 129/1/5
f 138/2/5 129/2/5 137/2/5
f 139/2/5 131/2/5 130/2/5
f 139/1/5 130/1/5 83/1/5
f 140/3/5 132/3/5 131/3/5
f 140/2/5 131/2/5 139/2/5
f 141/2/5 133/2/5 132/2/5
f 141/3/5 132/3/5 140/3/5
f 142/3/5 134/3/5 133/3/5
f 142/2/5 133/2/5 141/2/5
f 143/2/5 135/2/5 134/2/5
f 143/3/5 134/3/5 142/3/5
f 144/3/5 136/3/5 135/3/5
f 144/2/5 135/2/5 143/2/5
f 145/2/5 137/2/5 136/2/5
f 145/3/5 136/3/5 144/3/5
f 146/3/5 138/3/5 137/3/5
f 146/2/5 137/2/5 145/2/5
f 147/1/5 93/1/5 138/1/5
f 147/3/5 138/3/5 146/3/5
f 148/3/5 140/3/5 139/3/5
f 148/1/5 139/1/5 83/1/5
f 149/2/5 141/2/5 140/2/5
f 149/3/5 140/3/5 148/3/5
f 150/3/5 142/3/5 141/3/5
f 150/2/5 141/2/5 149/2/5
f 151/2/5 143/2/5 142/2/5
f 151/3/5 142/3/5 150/3/5
f 152/3/5 144/3/5 143/3/5
f 152/2/5 143/2/5 151/2/5
f 153/2/5 145/2/5 144/2/5
f 153/3/5 144/3/5 152/3/5
f 154/3/5 146/3/5 145/3/5
f 154/2/5 145/2/5 153/2/5
f 155/2/5 147/2/5 146/2/5
f 155/3/5 146/3/5 154/3/5
f 156/1/5 93/1/5 147/1/5
f 156/2/5 147/2/5 155/2/5
f 157/2/5 149/2/5 148/2/5
f 157/1/5 148/1/5 83/1/5
f 158/2/5 149/2/5 157/2/5
f 159/1/5 157/1/5 83/1/5
f 159/1/5 158/1/5 157/1/5
f 160/2/5 149/2/5 158/2/5
f 160/1/5 158/1/5 159/1/5
f 161/3/5 150/3/5 149/3/5
f 161/2/5 149/2/5 160/2/5
f 162/2/5 151/2/5 150/2/5
f 162/3/5 150/3/5 161/3/5
f 163/3/5 152/3/5 151/3/5
f 163/2/5 151/2/5 162/2/5
f 164/2/5 153/2/5 152/2/5
f 164/3/5 152/3/5 163/3/5
f 165/3/5 154/3/5 153/3/5
f 165/2/5 153/2/5 164/2/5
f 166/2/5 155/2/5 154/2/5
f 166/3/5 154/3/5 165/3/5
f 167/3/5 156/3/5 155/3/5
f 167/2/5 155/2/5 166/2/5
f 168/1/5 93/1/5 156/1/5
f 168/3/5 156/3/5 167/3/5
f 169/1/5 93/1/5 168/1/5
f 170/3/6 171/3/6 179/3/6
f 171/2/6 172/2/6 180/2/6
f 179/3/6 171/3/6 180/3/6
f 172/3/6 173/3/6 181/3/6
f 180/2/6 172/2/6 181/2/6
f 173/2/6 174/2/6 182/2/6
f 181/3/6 173/3/6 182/3/6
f 174/3/6 175/3/6 183/3/6
f 182/2/6 174/2/6 183/2/6
f 175/2/6 176/2/6 184/2/6
f 183/3/6 175/3/6 184/3/6
f 176/3/6 177/3/6 185/3/6
f 184/2/6 176/2/6 185/2/6
f 177/2/6 178/2/6 186/2/6
f 185/3/6 177/3/6 186/3/6
f 186/2/6 178/2/6 187/2/6
f 179/2/6 180/2/6 188/2/6
f 180/3/6 181/3/6 189/3/6
f 188/2/6 180/2/6 189/2/6
f 181/2/6 182/2/6 190/2/6
f 189/3/6 181/3/6 190/3/6
f 182/3/6 183/3/6 191/3/6
f 190/2/6 182/2/6 191/2/6
f 183/2/6 184/2/6 192/2/6
f 191/3/6 183/3/6 192/3/6
f 184/3/6 185/3/6 193/3/6
f 192/2/6 184/2/6 193/2/6
f 185/2/6 186/2/6 194/2/6
f 193/3/6 185/3/6 194/3/6
f 186/3/6 187/3/6 195/3/6
f 194/2/6 186/2/6 195/2/6
f 195/3/6 187/3/6 196/3/6
f 188/3/6 189/3/6 197/3/6
f 189/2/6 190/2/6 198/2/6
f 197/3/6 189/3/6 198/3/6
f 190/3/6 191/3/6 199/3/6
f 198/2/6 190/2/6 199/2/6
f 191/2/6 192/2/6 200/2/6
f 199/3/6 191/3/6 200/3/6
f 192/3/6 193/3/6 201/3/6
f 200/2/6 192/2/6 201/2/6
f 193/2/6 194/2/6 202/2/6
f 201/3/6 193/3/6 202/3/6
f 194/3/6 195/3/6 203/3/6
f 202/2/6 194/2/6 203/2/6
f 195/2/6 196/2/6 204/2/6
f 203/3/6 195/3/6 204/3/6
f 204/2/6 196/2/6 205/2/6
f 197/2/6 198/2/6 206/2/6
f 198/3/6 199/3/6 207/3/6
f 206/2/6 198/2/6 207/2/6
f 199/2/6 200/2/6 208/2/6
f 207/3/6 199/3/6 208/3/6
f 200/3/6 201/3/6 209/3/6
f 208/2/6 200/2/6 209/2/6
f 201/2/6 202/2/6 210/2/6
f 209/3/6 201/3/6 210/3/6
f 202/3/6 203/3/6 211/3/6
f 210/2/6 202/2/6 211/2/6
f 203/2/6 204/2/6 212/2/6
f 211/3/6 203/3/6 212/3/6
f 204/3/6 205/3/6 213/3/6
f 212/2/6 204/2/6 213/2/6
f 213/3/6 205/3/6 214/3/6
f 206/3/6 207/3/6 215/3/6
f 207/2/6 208/2/6 216/2/6
f 215/3/6 207/3/6 216/3/6
f 208/3/6 209/3/6 217/3/6
f 216/2/6 208/2/6 217/2/6
f 209/2/6 210/2/6 218/2/6
f 217/3/6 209/3/6 218/3/6
f 210/3/6 211/3/6 219/3/6
f 218/2/6 210/2/6 219/2/6
f 211/2/6 212/2/6 220/2/6
f 219/3/6 211/3/6 220/3/6
f 212/3/6 213/3/6 221/3/6
f 220/2/6 212/2/6 221/2/6
f 213/2/6 214/2/6 222/2/6
f 221/3/6 213/3/6 222/3/6
f 222/2/6 214/2/6 223/2/6
f 215/2/6 216/2/6 224/2/6
f 216/3/6 217/3/6 225/3/6
f 224/2/6 216/2/6 225/2/6
f 217/2/6 218/2/6 226/2/6
f 225/3/6 217/3/6 226/3/6
f 218/3/6 219/3/6 227/3/6
f 226/2/6 218/2/6 227/2/6
f 219/2/6 220/2/6 228/2/6
f 227/3/6 219/3/6 228/3/6
f 220/3/6 221/3/6 229/3/6
f 228/2/6 220/2/6 229/2/6
f 221/2/6 222/2/6 230/2/6
f 229/3/6 221/3/6 230/3/6
f 222/3/6 223/3/6 231/3/6
f 230/2/6 222/2/6 231/2/6
f 231/3/6 223/3/6 232/3/6
f 224/3/6 225/3/6 233/3/6
f 225/2/6 226/2/6 234/2/6
f 233/3/6 225/3/6 234/3/6
f 226/3/6 227/3/6 235/3/6
f 234/2/6 226/2/6 235/2/6
f 227/2/6 228/2/6 236/2/6
f 235/3/6 227/3/6 236/3/6
f 228/3/6 229/3/6 237/3/6
f 236/2/6 228/2/6 237/2/6
f 229/2/6 230/2/6 238/2/6
f 237/3/6 229/3/6 238/3/6
f 230/3/6 231/3/6 239/3/6
f 238/2/6 230/2/6 239/2/6
f 231/2/6 232/2/6 240/2/6
f 239/3/6 231/3/6 240/3/6
f 240/2/6 232/2/6 241/2/6
f 233/2/6 234/2/6 242/2/6
f 234/3/6 235/3/6 243/3/6
f 242/2/6 234/2/6 243/2/6
f 235/2/6 236/2/6 244/2/6
f 243/3/6 235/3/6 244/3/6
f 236/3/6 237/3/6 245/3/6
f 244/2/6 236/2/6 245/2/6
f 237/2/6 238/2/6 246/2/6
f 245/3/6 237/3/6 246/3/6
f 238/3/6 239/3/6 247/3/6
f 246/2/6 238/2/6 247/2/6
f 239/2/6 240/2/6 248/2/6
f 247/3/6 239/3/6 248/3/6
f 240/3/6 241/3/6 249/3/6
f 248/2/6 240/2/6 249/2/6
f 249/3/6 241/3/6 250/3/6
f 251/1/6 252/1/6 255/1/6
f 255/1/6 252/1/6 256/1/6
f 253/1/6 254/1/6 257/1/6
f 257/1/6 254/1/6 258/1/6
