# MagicaVoxel @ Ephtracy

# material
mtllib spaceship outline mk2.mtl
usemtl palette

# normals
vn -1 0 0
vn 1 0 0
vn 0 0 1
vn 0 0 -1
vn 0 -1 0
vn 0 1 0

# texcoords
vt 0.677734 0.5
vt 0.705078 0.5
vt 0.775391 0.5
vt 0.935547 0.5
vt 0.962891 0.5
vt 0.990234 0.5

# verts
v -18 0 35.5
v -18 0 34.5
v -18 0 26.5
v -18 1 35.5
v -18 1 34.5
v -18 1 26.5
v -15 0 -34.5
v -15 0 -35.5
v -15 1 -34.5
v -15 1 -35.5
v 1 0 35.5
v 1 0 34.5
v 1 0 31.5
v 1 1 35.5
v 1 1 34.5
v 1 1 31.5
v 6 0 -6.5
v 6 0 -8.5
v 6 0 -9.5
v 6 0 -10.5
v 6 0 -13.5
v 6 0 -14.5
v 6 0 -15.5
v 6 0 -17.5
v 6 0 -18.5
v 6 0 -24.5
v 6 0 -34.5
v 6 1 -6.5
v 6 1 -8.5
v 6 1 -9.5
v 6 1 -10.5
v 6 1 -13.5
v 6 1 -14.5
v 6 1 -15.5
v 6 1 -17.5
v 6 1 -18.5
v 6 1 -24.5
v 6 1 -34.5
v 9 0 26.5
v 9 0 -6.5
v 9 1 26.5
v 9 1 -6.5
v 11 0 33.5
v 11 0 32.5
v 11 1 33.5
v 11 1 32.5
v 13 0 -28.5
v 13 0 -31.5
v 13 1 -28.5
v 13 1 -31.5
v 15 0 28.5
v 15 0 27.5
v 15 1 28.5
v 15 1 27.5
v 16 0 22.5
v 16 0 19.5
v 16 0 1.5
v 16 0 0.5
v 16 1 22.5
v 16 1 19.5
v 16 2 1.5
v 16 2 0.5
v 17 0 -32.5
v 17 0 -33.5
v 17 0 -34.5
v 17 1 -32.5
v 17 1 -33.5
v 17 1 -34.5
v -10 0 35.5
v -10 0 34.5
v -10 0 31.5
v -10 1 35.5
v -10 1 34.5
v -10 1 31.5
v 6 0 -34.5
v 6 0 -35.5
v 6 1 -34.5
v 6 1 -35.5
v 7 0 -7.5
v 7 0 -8.5
v 7 0 -9.5
v 7 0 -10.5
v 7 0 -13.5
v 7 0 -14.5
v 7 0 -15.5
v 7 0 -17.5
v 7 0 -24.5
v 7 0 -34.5
v 7 1 -7.5
v 7 1 -8.5
v 7 1 -9.5
v 7 1 -10.5
v 7 1 -13.5
v 7 1 -14.5
v 7 1 -15.5
v 7 1 -17.5
v 7 1 -24.5
v 7 1 -34.5
v 9 0 35.5
v 9 0 34.5
v 9 0 26.5
v 9 1 35.5
v 9 1 34.5
v 9 1 26.5
v 10 0 26.5
v 10 0 25.5
v 10 0 18.5
v 10 0 13.5
v 10 0 6.5
v 10 0 1.5
v 10 0 -5.5
v 10 0 -7.5
v 10 1 26.5
v 10 1 25.5
v 10 1 18.5
v 10 1 13.5
v 10 1 6.5
v 10 1 1.5
v 10 1 -5.5
v 10 1 -7.5
v 11 0 -17.5
v 11 0 -18.5
v 11 0 -23.5
v 11 0 -24.5
v 11 1 -17.5
v 11 1 -18.5
v 11 1 -23.5
v 11 1 -24.5
v 12 0 25.5
v 12 0 24.5
v 12 0 19.5
v 12 0 18.5
v 12 0 13.5
v 12 0 12.5
v 12 0 7.5
v 12 0 6.5
v 12 0 1.5
v 12 0 0.5
v 12 0 -4.5
v 12 0 -5.5
v 12 1 25.5
v 12 1 24.5
v 12 1 19.5
v 12 1 18.5
v 12 1 13.5
v 12 1 12.5
v 12 1 7.5
v 12 1 6.5
v 12 1 1.5
v 12 1 0.5
v 12 1 -4.5
v 12 1 -5.5
v 13 0 33.5
v 13 0 32.5
v 13 1 33.5
v 13 1 32.5
v 14 0 -28.5
v 14 0 -31.5
v 14 1 -28.5
v 14 1 -31.5
v 16 0 28.5
v 16 0 27.5
v 16 1 28.5
v 16 1 27.5
v 17 0 22.5
v 17 0 19.5
v 17 0 1.5
v 17 0 0.5
v 17 1 22.5
v 17 1 19.5
v 17 2 1.5
v 17 2 0.5
v 18 0 -32.5
v 18 0 -33.5
v 18 0 -34.5
v 18 1 -32.5
v 18 1 -33.5
v 18 1 -34.5
v -18 0 35.5
v -18 1 35.5
v -10 0 35.5
v -10 1 35.5
v 1 0 35.5
v 1 1 35.5
v 9 0 35.5
v 9 1 35.5
v 11 0 33.5
v 11 1 33.5
v 12 0 33.5
v 12 1 33.5
v 13 0 33.5
v 13 1 33.5
v -10 0 31.5
v -10 1 31.5
v 1 0 31.5
v 1 1 31.5
v 15 0 28.5
v 15 1 28.5
v 16 0 28.5
v 16 1 28.5
v 9 0 26.5
v 9 1 26.5
v 10 0 26.5
v 10 1 26.5
v 10 0 25.5
v 10 1 25.5
v 11 0 25.5
v 11 1 25.5
v 12 0 25.5
v 12 1 25.5
v 16 0 22.5
v 16 1 22.5
v 17 0 22.5
v 17 1 22.5
v 10 0 13.5
v 10 1 13.5
v 11 0 13.5
v 11 1 13.5
v 12 0 13.5
v 12 1 13.5
v 10 0 1.5
v 10 1 1.5
v 11 0 1.5
v 11 1 1.5
v 12 0 1.5
v 12 1 1.5
v 16 0 1.5
v 16 2 1.5
v 17 0 1.5
v 17 2 1.5
v 6 0 -6.5
v 6 1 -6.5
v 9 0 -6.5
v 9 1 -6.5
v 6 0 -13.5
v 6 1 -13.5
v 7 0 -13.5
v 7 1 -13.5
v 7 0 -17.5
v 7 1 -17.5
v 10 0 -17.5
v 10 1 -17.5
v 11 0 -17.5
v 11 1 -17.5
v 13 0 -28.5
v 13 1 -28.5
v 14 0 -28.5
v 14 1 -28.5
v 17 0 -32.5
v 17 1 -32.5
v 18 0 -32.5
v 18 1 -32.5
v -15 0 -34.5
v -15 1 -34.5
v 6 0 -34.5
v 6 1 -34.5
v 11 0 32.5
v 11 1 32.5
v 12 0 32.5
v 12 1 32.5
v 13 0 32.5
v 13 1 32.5
v 15 0 27.5
v 15 1 27.5
v 16 0 27.5
v 16 1 27.5
v -18 0 26.5
v -18 1 26.5
v -11 0 26.5
v -11 1 26.5
v 2 0 26.5
v 2 1 26.5
v 9 0 26.5
v 9 1 26.5
v 16 0 19.5
v 16 1 19.5
v 17 0 19.5
v 17 1 19.5
v 10 0 18.5
v 10 1 18.5
v 11 0 18.5
v 11 1 18.5
v 12 0 18.5
v 12 1 18.5
v 10 0 6.5
v 10 1 6.5
v 11 0 6.5
v 11 1 6.5
v 12 0 6.5
v 12 1 6.5
v 16 0 0.5
v 16 2 0.5
v 17 0 0.5
v 17 2 0.5
v 10 0 -5.5
v 10 1 -5.5
v 11 0 -5.5
v 11 1 -5.5
v 12 0 -5.5
v 12 1 -5.5
v 7 0 -7.5
v 7 1 -7.5
v 10 0 -7.5
v 10 1 -7.5
v 6 0 -10.5
v 6 1 -10.5
v 7 0 -10.5
v 7 1 -10.5
v 7 0 -24.5
v 7 1 -24.5
v 10 0 -24.5
v 10 1 -24.5
v 11 0 -24.5
v 11 1 -24.5
v 13 0 -31.5
v 13 1 -31.5
v 14 0 -31.5
v 14 1 -31.5
v 6 0 -34.5
v 6 1 -34.5
v 7 0 -34.5
v 7 1 -34.5
v 17 0 -34.5
v 17 1 -34.5
v 18 0 -34.5
v 18 1 -34.5
v -15 0 -35.5
v -15 1 -35.5
v 6 0 -35.5
v 6 1 -35.5
v -18 0 35.5
v -10 0 35.5
v 1 0 35.5
v 9 0 35.5
v -18 0 34.5
v -10 0 34.5
v 1 0 34.5
v 9 0 34.5
v 11 0 33.5
v 12 0 33.5
v 13 0 33.5
v 11 0 32.5
v 12 0 32.5
v 13 0 32.5
v -10 0 31.5
v 1 0 31.5
v -10 0 30.5
v 1 0 30.5
v -10 0 29.5
v 1 0 29.5
v -11 0 28.5
v -10 0 28.5
v 1 0 28.5
v 2 0 28.5
v 15 0 28.5
v 16 0 28.5
v 15 0 27.5
v 16 0 27.5
v -18 0 26.5
v -11 0 26.5
v 2 0 26.5
v 9 0 26.5
v 10 0 26.5
v 10 0 25.5
v 11 0 25.5
v 12 0 25.5
v 11 0 24.5
v 12 0 24.5
v 16 0 22.5
v 17 0 22.5
v 11 0 19.5
v 12 0 19.5
v 16 0 19.5
v 17 0 19.5
v 10 0 18.5
v 11 0 18.5
v 12 0 18.5
v 10 0 13.5
v 11 0 13.5
v 12 0 13.5
v 11 0 12.5
v 12 0 12.5
v 11 0 7.5
v 12 0 7.5
v 10 0 6.5
v 11 0 6.5
v 12 0 6.5
v 10 0 1.5
v 11 0 1.5
v 12 0 1.5
v 16 0 1.5
v 17 0 1.5
v 11 0 0.5
v 12 0 0.5
v 16 0 0.5
v 17 0 0.5
v 11 0 -4.5
v 12 0 -4.5
v 10 0 -5.5
v 11 0 -5.5
v 12 0 -5.5
v 6 0 -6.5
v 9 0 -6.5
v 7 0 -7.5
v 10 0 -7.5
v 6 0 -8.5
v 7 0 -8.5
v 6 0 -9.5
v 7 0 -9.5
v 6 0 -10.5
v 7 0 -10.5
v 6 0 -13.5
v 7 0 -13.5
v 6 0 -14.5
v 7 0 -14.5
v 6 0 -15.5
v 7 0 -15.5
v 6 0 -17.5
v 7 0 -17.5
v 10 0 -17.5
v 11 0 -17.5
v 6 0 -18.5
v 7 0 -18.5
v 10 0 -18.5
v 11 0 -18.5
v 10 0 -23.5
v 11 0 -23.5
v 6 0 -24.5
v 7 0 -24.5
v 10 0 -24.5
v 11 0 -24.5
v 13 0 -28.5
v 14 0 -28.5
v 13 0 -31.5
v 14 0 -31.5
v 17 0 -32.5
v 18 0 -32.5
v 17 0 -33.5
v 18 0 -33.5
v -15 0 -34.5
v 6 0 -34.5
v 7 0 -34.5
v 17 0 -34.5
v 18 0 -34.5
v -15 0 -35.5
v 6 0 -35.5
v -18 1 35.5
v -10 1 35.5
v 1 1 35.5
v 9 1 35.5
v -18 1 34.5
v -10 1 34.5
v 1 1 34.5
v 9 1 34.5
v 11 1 33.5
v 12 1 33.5
v 13 1 33.5
v 11 1 32.5
v 12 1 32.5
v 13 1 32.5
v -10 1 31.5
v 1 1 31.5
v -10 1 30.5
v 1 1 30.5
v -10 1 29.5
v 1 1 29.5
v -11 1 28.5
v -10 1 28.5
v 1 1 28.5
v 2 1 28.5
v 15 1 28.5
v 16 1 28.5
v 15 1 27.5
v 16 1 27.5
v -18 1 26.5
v -11 1 26.5
v 2 1 26.5
v 9 1 26.5
v 10 1 26.5
v 10 1 25.5
v 11 1 25.5
v 12 1 25.5
v 11 1 24.5
v 12 1 24.5
v 16 1 22.5
v 17 1 22.5
v 11 1 19.5
v 12 1 19.5
v 16 1 19.5
v 17 1 19.5
v 10 1 18.5
v 11 1 18.5
v 12 1 18.5
v 10 1 13.5
v 11 1 13.5
v 12 1 13.5
v 11 1 12.5
v 12 1 12.5
v 11 1 7.5
v 12 1 7.5
v 10 1 6.5
v 11 1 6.5
v 12 1 6.5
v 10 1 1.5
v 11 1 1.5
v 12 1 1.5
v 11 1 0.5
v 12 1 0.5
v 11 1 -4.5
v 12 1 -4.5
v 10 1 -5.5
v 11 1 -5.5
v 12 1 -5.5
v 6 1 -6.5
v 9 1 -6.5
v 7 1 -7.5
v 10 1 -7.5
v 6 1 -8.5
v 7 1 -8.5
v 6 1 -9.5
v 7 1 -9.5
v 6 1 -10.5
v 7 1 -10.5
v 6 1 -13.5
v 7 1 -13.5
v 6 1 -14.5
v 7 1 -14.5
v 6 1 -15.5
v 7 1 -15.5
v 6 1 -17.5
v 7 1 -17.5
v 10 1 -17.5
v 11 1 -17.5
v 6 1 -18.5
v 7 1 -18.5
v 10 1 -18.5
v 11 1 -18.5
v 10 1 -23.5
v 11 1 -23.5
v 6 1 -24.5
v 7 1 -24.5
v 10 1 -24.5
v 11 1 -24.5
v 13 1 -28.5
v 14 1 -28.5
v 13 1 -31.5
v 14 1 -31.5
v 17 1 -32.5
v 18 1 -32.5
v 17 1 -33.5
v 18 1 -33.5
v -15 1 -34.5
v 6 1 -34.5
v 7 1 -34.5
v 17 1 -34.5
v 18 1 -34.5
v -15 1 -35.5
v 6 1 -35.5
v 16 2 1.5
v 17 2 1.5
v 16 2 0.5
v 17 2 0.5

# faces
f 4/4/1 2/4/1 1/4/1
f 5/6/1 3/6/1 2/6/1
f 5/4/1 2/4/1 4/4/1
f 6/6/1 3/6/1 5/6/1
f 9/2/1 8/2/1 7/2/1
f 10/2/1 8/2/1 9/2/1
f 14/4/1 12/4/1 11/4/1
f 15/6/1 13/6/1 12/6/1
f 15/4/1 12/4/1 14/4/1
f 16/6/1 13/6/1 15/6/1
f 28/5/1 18/5/1 17/5/1
f 29/3/1 19/3/1 18/3/1
f 29/5/1 18/5/1 28/5/1
f 30/2/1 20/2/1 19/2/1
f 30/3/1 19/3/1 29/3/1
f 31/2/1 20/2/1 30/2/1
f 32/2/1 22/2/1 21/2/1
f 33/3/1 23/3/1 22/3/1
f 33/2/1 22/2/1 32/2/1
f 34/5/1 24/5/1 23/5/1
f 34/3/1 23/3/1 33/3/1
f 35/2/1 25/2/1 24/2/1
f 35/5/1 24/5/1 34/5/1
f 36/5/1 26/5/1 25/5/1
f 36/2/1 25/2/1 35/2/1
f 37/2/1 27/2/1 26/2/1
f 37/5/1 26/5/1 36/5/1
f 38/2/1 27/2/1 37/2/1
f 41/5/1 40/5/1 39/5/1
f 42/5/1 40/5/1 41/5/1
f 45/5/1 44/5/1 43/5/1
f 46/5/1 44/5/1 45/5/1
f 49/5/1 48/5/1 47/5/1
f 50/5/1 48/5/1 49/5/1
f 53/5/1 52/5/1 51/5/1
f 54/5/1 52/5/1 53/5/1
f 59/5/1 56/5/1 55/5/1
f 60/5/1 56/5/1 59/5/1
f 61/5/1 58/5/1 57/5/1
f 62/5/1 58/5/1 61/5/1
f 66/2/1 64/2/1 63/2/1
f 67/5/1 65/5/1 64/5/1
f 67/2/1 64/2/1 66/2/1
f 68/5/1 65/5/1 67/5/1
f 69/4/2 70/4/2 72/4/2
f 70/6/2 71/6/2 73/6/2
f 72/4/2 70/4/2 73/4/2
f 73/6/2 71/6/2 74/6/2
f 75/2/2 76/2/2 77/2/2
f 77/2/2 76/2/2 78/2/2
f 79/5/2 80/5/2 89/5/2
f 80/3/2 81/3/2 90/3/2
f 89/5/2 80/5/2 90/5/2
f 81/2/2 82/2/2 91/2/2
f 90/3/2 81/3/2 91/3/2
f 91/2/2 82/2/2 92/2/2
f 83/2/2 84/2/2 93/2/2
f 84/3/2 85/3/2 94/3/2
f 93/2/2 84/2/2 94/2/2
f 85/5/2 86/5/2 95/5/2
f 94/3/2 85/3/2 95/3/2
f 95/5/2 86/5/2 96/5/2
f 87/2/2 88/2/2 97/2/2
f 97/2/2 88/2/2 98/2/2
f 99/4/2 100/4/2 102/4/2
f 100/6/2 101/6/2 103/6/2
f 102/4/2 100/4/2 103/4/2
f 103/6/2 101/6/2 104/6/2
f 105/5/2 106/5/2 113/5/2
f 113/5/2 106/5/2 114/5/2
f 107/5/2 108/5/2 115/5/2
f 115/5/2 108/5/2 116/5/2
f 109/5/2 110/5/2 117/5/2
f 117/5/2 110/5/2 118/5/2
f 111/5/2 112/5/2 119/5/2
f 119/5/2 112/5/2 120/5/2
f 121/2/2 122/2/2 125/2/2
f 122/5/2 123/5/2 126/5/2
f 125/2/2 122/2/2 126/2/2
f 123/2/2 124/2/2 127/2/2
f 126/5/2 123/5/2 127/5/2
f 127/2/2 124/2/2 128/2/2
f 129/2/2 130/2/2 141/2/2
f 130/5/2 131/5/2 142/5/2
f 141/2/2 130/2/2 142/2/2
f 131/2/2 132/2/2 143/2/2
f 142/5/2 131/5/2 143/5/2
f 143/2/2 132/2/2 144/2/2
f 133/2/2 134/2/2 145/2/2
f 134/5/2 135/5/2 146/5/2
f 145/2/2 134/2/2 146/2/2
f 135/2/2 136/2/2 147/2/2
f 146/5/2 135/5/2 147/5/2
f 147/2/2 136/2/2 148/2/2
f 137/2/2 138/2/2 149/2/2
f 138/5/2 139/5/2 150/5/2
f 149/2/2 138/2/2 150/2/2
f 139/2/2 140/2/2 151/2/2
f 150/5/2 139/5/2 151/5/2
f 151/2/2 140/2/2 152/2/2
f 153/2/2 154/2/2 155/2/2
f 155/2/2 154/2/2 156/2/2
f 157/5/2 158/5/2 159/5/2
f 159/5/2 158/5/2 160/5/2
f 161/5/2 162/5/2 163/5/2
f 163/5/2 162/5/2 164/5/2
f 165/5/2 166/5/2 169/5/2
f 169/5/2 166/5/2 170/5/2
f 167/5/2 168/5/2 171/5/2
f 171/5/2 168/5/2 172/5/2
f 173/2/2 174/2/2 176/2/2
f 174/5/2 175/5/2 177/5/2
f 176/2/2 174/2/2 177/2/2
f 177/5/2 175/5/2 178/5/2
f 181/4/3 180/4/3 179/4/3
f 182/4/3 180/4/3 181/4/3
f 185/4/3 184/4/3 183/4/3
f 186/4/3 184/4/3 185/4/3
f 189/5/3 188/5/3 187/5/3
f 190/5/3 188/5/3 189/5/3
f 191/2/3 190/2/3 189/2/3
f 192/2/3 190/2/3 191/2/3
f 195/6/3 194/6/3 193/6/3
f 196/6/3 194/6/3 195/6/3
f 199/5/3 198/5/3 197/5/3
f 200/5/3 198/5/3 199/5/3
f 203/5/3 202/5/3 201/5/3
f 204/5/3 202/5/3 203/5/3
f 207/5/3 206/5/3 205/5/3
f 208/5/3 206/5/3 207/5/3
f 209/2/3 208/2/3 207/2/3
f 210/2/3 208/2/3 209/2/3
f 213/5/3 212/5/3 211/5/3
f 214/5/3 212/5/3 213/5/3
f 217/5/3 216/5/3 215/5/3
f 218/5/3 216/5/3 217/5/3
f 219/2/3 218/2/3 217/2/3
f 220/2/3 218/2/3 219/2/3
f 223/5/3 222/5/3 221/5/3
f 224/5/3 222/5/3 223/5/3
f 225/2/3 224/2/3 223/2/3
f 226/2/3 224/2/3 225/2/3
f 229/5/3 228/5/3 227/5/3
f 230/5/3 228/5/3 229/5/3
f 233/5/3 232/5/3 231/5/3
f 234/5/3 232/5/3 233/5/3
f 237/2/3 236/2/3 235/2/3
f 238/2/3 236/2/3 237/2/3
f 241/5/3 240/5/3 239/5/3
f 242/5/3 240/5/3 241/5/3
f 243/2/3 242/2/3 241/2/3
f 244/2/3 242/2/3 243/2/3
f 247/5/3 246/5/3 245/5/3
f 248/5/3 246/5/3 247/5/3
f 251/2/3 250/2/3 249/2/3
f 252/2/3 250/2/3 251/2/3
f 255/2/3 254/2/3 253/2/3
f 256/2/3 254/2/3 255/2/3
f 257/5/4 258/5/4 259/5/4
f 259/5/4 258/5/4 260/5/4
f 259/2/4 260/2/4 261/2/4
f 261/2/4 260/2/4 262/2/4
f 263/5/4 264/5/4 265/5/4
f 265/5/4 264/5/4 266/5/4
f 267/6/4 268/6/4 269/6/4
f 269/6/4 268/6/4 270/6/4
f 269/1/4 270/1/4 271/1/4
f 271/1/4 270/1/4 272/1/4
f 271/6/4 272/6/4 273/6/4
f 273/6/4 272/6/4 274/6/4
f 275/5/4 276/5/4 277/5/4
f 277/5/4 276/5/4 278/5/4
f 279/5/4 280/5/4 281/5/4
f 281/5/4 280/5/4 282/5/4
f 281/2/4 282/2/4 283/2/4
f 283/2/4 282/2/4 284/2/4
f 285/5/4 286/5/4 287/5/4
f 287/5/4 286/5/4 288/5/4
f 287/2/4 288/2/4 289/2/4
f 289/2/4 288/2/4 290/2/4
f 291/5/4 292/5/4 293/5/4
f 293/5/4 292/5/4 294/5/4
f 295/5/4 296/5/4 297/5/4
f 297/5/4 296/5/4 298/5/4
f 297/2/4 298/2/4 299/2/4
f 299/2/4 298/2/4 300/2/4
f 301/5/4 302/5/4 303/5/4
f 303/5/4 302/5/4 304/5/4
f 305/2/4 306/2/4 307/2/4
f 307/2/4 306/2/4 308/2/4
f 309/5/4 310/5/4 311/5/4
f 311/5/4 310/5/4 312/5/4
f 311/2/4 312/2/4 313/2/4
f 313/2/4 312/2/4 314/2/4
f 315/5/4 316/5/4 317/5/4
f 317/5/4 316/5/4 318/5/4
f 319/2/4 320/2/4 321/2/4
f 321/2/4 320/2/4 322/2/4
f 323/5/4 324/5/4 325/5/4
f 325/5/4 324/5/4 326/5/4
f 327/2/4 328/2/4 329/2/4
f 329/2/4 328/2/4 330/2/4
f 335/4/5 332/4/5 331/4/5
f 336/4/5 332/4/5 335/4/5
f 337/4/5 334/4/5 333/4/5
f 338/4/5 334/4/5 337/4/5
f 342/5/5 340/5/5 339/5/5
f 343/2/5 341/2/5 340/2/5
f 343/5/5 340/5/5 342/5/5
f 344/2/5 341/2/5 343/2/5
f 345/6/5 336/6/5 335/6/5
f 346/6/5 338/6/5 337/6/5
f 347/6/5 345/6/5 335/6/5
f 347/6/5 346/6/5 345/6/5
f 348/6/5 338/6/5 346/6/5
f 348/6/5 346/6/5 347/6/5
f 349/6/5 347/6/5 335/6/5
f 349/4/5 348/4/5 347/4/5
f 350/6/5 338/6/5 348/6/5
f 350/4/5 348/4/5 349/4/5
f 351/6/5 349/6/5 335/6/5
f 352/1/5 350/1/5 349/1/5
f 352/6/5 349/6/5 351/6/5
f 353/6/5 338/6/5 350/6/5
f 353/1/5 350/1/5 352/1/5
f 354/6/5 338/6/5 353/6/5
f 357/5/5 356/5/5 355/5/5
f 358/5/5 356/5/5 357/5/5
f 359/6/5 351/6/5 335/6/5
f 360/1/5 352/1/5 351/1/5
f 360/6/5 351/6/5 359/6/5
f 360/1/5 353/1/5 352/1/5
f 360/1/5 354/1/5 353/1/5
f 361/6/5 338/6/5 354/6/5
f 361/1/5 354/1/5 360/1/5
f 362/6/5 338/6/5 361/6/5
f 364/5/5 363/5/5 362/5/5
f 367/5/5 365/5/5 364/5/5
f 367/2/5 366/2/5 365/2/5
f 368/2/5 366/2/5 367/2/5
f 371/5/5 368/5/5 367/5/5
f 371/5/5 367/5/5 364/5/5
f 372/5/5 368/5/5 371/5/5
f 373/5/5 370/5/5 369/5/5
f 374/5/5 370/5/5 373/5/5
f 375/5/5 364/5/5 362/5/5
f 375/5/5 371/5/5 364/5/5
f 376/2/5 372/2/5 371/2/5
f 376/5/5 371/5/5 375/5/5
f 377/2/5 372/2/5 376/2/5
f 378/5/5 375/5/5 362/5/5
f 381/5/5 379/5/5 378/5/5
f 381/2/5 380/2/5 379/2/5
f 382/2/5 380/2/5 381/2/5
f 383/5/5 381/5/5 378/5/5
f 383/5/5 382/5/5 381/5/5
f 384/5/5 382/5/5 383/5/5
f 385/5/5 378/5/5 362/5/5
f 385/5/5 383/5/5 378/5/5
f 386/2/5 384/2/5 383/2/5
f 386/5/5 383/5/5 385/5/5
f 387/2/5 384/2/5 386/2/5
f 388/5/5 385/5/5 362/5/5
f 393/2/5 390/2/5 389/2/5
f 393/5/5 389/5/5 388/5/5
f 394/2/5 390/2/5 393/2/5
f 395/5/5 392/5/5 391/5/5
f 396/5/5 392/5/5 395/5/5
f 397/5/5 394/5/5 393/5/5
f 397/5/5 393/5/5 388/5/5
f 398/5/5 394/5/5 397/5/5
f 399/5/5 388/5/5 362/5/5
f 399/5/5 397/5/5 388/5/5
f 400/2/5 398/2/5 397/2/5
f 400/5/5 397/5/5 399/5/5
f 401/2/5 398/2/5 400/2/5
f 403/5/5 399/5/5 362/5/5
f 404/5/5 403/5/5 402/5/5
f 405/5/5 399/5/5 403/5/5
f 405/5/5 403/5/5 404/5/5
f 406/5/5 404/5/5 402/5/5
f 407/5/5 404/5/5 406/5/5
f 408/3/5 407/3/5 406/3/5
f 409/3/5 407/3/5 408/3/5
f 410/2/5 409/2/5 408/2/5
f 411/2/5 409/2/5 410/2/5
f 414/2/5 413/2/5 412/2/5
f 415/2/5 413/2/5 414/2/5
f 416/3/5 415/3/5 414/3/5
f 417/3/5 415/3/5 416/3/5
f 418/5/5 417/5/5 416/5/5
f 419/5/5 417/5/5 418/5/5
f 422/2/5 419/2/5 418/2/5
f 423/5/5 420/5/5 419/5/5
f 423/2/5 419/2/5 422/2/5
f 424/2/5 421/2/5 420/2/5
f 424/5/5 420/5/5 423/5/5
f 425/2/5 421/2/5 424/2/5
f 426/5/5 423/5/5 422/5/5
f 426/5/5 424/5/5 423/5/5
f 426/5/5 425/5/5 424/5/5
f 427/5/5 425/5/5 426/5/5
f 428/5/5 426/5/5 422/5/5
f 429/5/5 426/5/5 428/5/5
f 430/2/5 427/2/5 426/2/5
f 430/5/5 426/5/5 429/5/5
f 431/2/5 427/2/5 430/2/5
f 434/5/5 433/5/5 432/5/5
f 435/5/5 433/5/5 434/5/5
f 438/2/5 437/2/5 436/2/5
f 439/2/5 437/2/5 438/2/5
f 441/2/5 429/2/5 428/2/5
f 442/2/5 429/2/5 441/2/5
f 443/5/5 439/5/5 438/5/5
f 444/5/5 439/5/5 443/5/5
f 445/2/5 441/2/5 440/2/5
f 446/2/5 441/2/5 445/2/5
f 447/4/6 448/4/6 451/4/6
f 451/4/6 448/4/6 452/4/6
f 449/4/6 450/4/6 453/4/6
f 453/4/6 450/4/6 454/4/6
f 455/5/6 456/5/6 458/5/6
f 456/2/6 457/2/6 459/2/6
f 458/5/6 456/5/6 459/5/6
f 459/2/6 457/2/6 460/2/6
f 451/6/6 452/6/6 461/6/6
f 453/6/6 454/6/6 462/6/6
f 451/6/6 461/6/6 463/6/6
f 461/6/6 462/6/6 463/6/6
f 462/6/6 454/6/6 464/6/6
f 463/6/6 462/6/6 464/6/6
f 451/6/6 463/6/6 465/6/6
f 463/4/6 464/4/6 465/4/6
f 464/6/6 454/6/6 466/6/6
f 465/4/6 464/4/6 466/4/6
f 451/6/6 465/6/6 467/6/6
f 465/1/6 466/1/6 468/1/6
f 467/6/6 465/6/6 468/6/6
f 466/6/6 454/6/6 469/6/6
f 468/1/6 466/1/6 469/1/6
f 469/6/6 454/6/6 470/6/6
f 471/5/6 472/5/6 473/5/6
f 473/5/6 472/5/6 474/5/6
f 451/6/6 467/6/6 475/6/6
f 467/1/6 468/1/6 476/1/6
f 475/6/6 467/6/6 476/6/6
f 468/1/6 469/1/6 476/1/6
f 469/1/6 470/1/6 476/1/6
f 470/6/6 454/6/6 477/6/6
f 476/1/6 470/1/6 477/1/6
f 477/6/6 454/6/6 478/6/6
f 478/5/6 479/5/6 480/5/6
f 480/5/6 481/5/6 483/5/6
f 481/2/6 482/2/6 483/2/6
f 483/2/6 482/2/6 484/2/6
f 483/5/6 484/5/6 487/5/6
f 480/5/6 483/5/6 487/5/6
f 487/5/6 484/5/6 488/5/6
f 485/5/6 486/5/6 489/5/6
f 489/5/6 486/5/6 490/5/6
f 478/5/6 480/5/6 491/5/6
f 480/5/6 487/5/6 491/5/6
f 487/2/6 488/2/6 492/2/6
f 491/5/6 487/5/6 492/5/6
f 492/2/6 488/2/6 493/2/6
f 478/5/6 491/5/6 494/5/6
f 494/5/6 495/5/6 497/5/6
f 495/2/6 496/2/6 497/2/6
f 497/2/6 496/2/6 498/2/6
f 494/5/6 497/5/6 499/5/6
f 497/5/6 498/5/6 499/5/6
f 499/5/6 498/5/6 500/5/6
f 478/5/6 494/5/6 501/5/6
f 494/5/6 499/5/6 501/5/6
f 499/2/6 500/2/6 502/2/6
f 501/5/6 499/5/6 502/5/6
f 502/2/6 500/2/6 503/2/6
f 478/5/6 501/5/6 504/5/6
f 504/5/6 505/5/6 507/5/6
f 505/2/6 506/2/6 507/2/6
f 507/2/6 506/2/6 508/2/6
f 504/5/6 507/5/6 509/5/6
f 507/5/6 508/5/6 509/5/6
f 509/5/6 508/5/6 510/5/6
f 478/5/6 504/5/6 511/5/6
f 504/5/6 509/5/6 511/5/6
f 509/2/6 510/2/6 512/2/6
f 511/5/6 509/5/6 512/5/6
f 512/2/6 510/2/6 513/2/6
f 478/5/6 511/5/6 515/5/6
f 514/5/6 515/5/6 516/5/6
f 515/5/6 511/5/6 517/5/6
f 516/5/6 515/5/6 517/5/6
f 514/5/6 516/5/6 518/5/6
f 518/5/6 516/5/6 519/5/6
f 518/3/6 519/3/6 520/3/6
f 520/3/6 519/3/6 521/3/6
f 520/2/6 521/2/6 522/2/6
f 522/2/6 521/2/6 523/2/6
f 524/2/6 525/2/6 526/2/6
f 526/2/6 525/2/6 527/2/6
f 526/3/6 527/3/6 528/3/6
f 528/3/6 527/3/6 529/3/6
f 528/5/6 529/5/6 530/5/6
f 530/5/6 529/5/6 531/5/6
f 530/2/6 531/2/6 534/2/6
f 531/5/6 532/5/6 535/5/6
f 534/2/6 531/2/6 535/2/6
f 532/2/6 533/2/6 536/2/6
f 535/5/6 532/5/6 536/5/6
f 536/2/6 533/2/6 537/2/6
f 534/5/6 535/5/6 538/5/6
f 535/5/6 536/5/6 538/5/6
f 536/5/6 537/5/6 538/5/6
f 538/5/6 537/5/6 539/5/6
f 534/5/6 538/5/6 540/5/6
f 540/5/6 538/5/6 541/5/6
f 538/2/6 539/2/6 542/2/6
f 541/5/6 538/5/6 542/5/6
f 542/2/6 539/2/6 543/2/6
f 544/5/6 545/5/6 546/5/6
f 546/5/6 545/5/6 547/5/6
f 548/2/6 549/2/6 550/2/6
f 550/2/6 549/2/6 551/2/6
f 540/2/6 541/2/6 553/2/6
f 553/2/6 541/2/6 554/2/6
f 550/5/6 551/5/6 555/5/6
f 555/5/6 551/5/6 556/5/6
f 552/2/6 553/2/6 557/2/6
f 557/2/6 553/2/6 558/2/6
f 559/5/6 560/5/6 561/5/6
f 561/5/6 560/5/6 562/5/6
