# MagicaVoxel @ Ephtracy

# material
mtllib Podium.mtl
usemtl palette

# normals
vn -1 0 0
vn 1 0 0
vn 0 0 1
vn 0 0 -1
vn 0 -1 0
vn 0 1 0

# texcoords
vt 0.115234 0.5
vt 0.146484 0.5
vt 0.919922 0.5

# verts
v -28 10 12
v -28 10 5
v -28 11 12
v -28 11 5
v -27 10 13
v -27 10 12
v -27 10 5
v -27 10 4
v -27 11 13
v -27 11 12
v -27 11 11
v -27 11 6
v -27 11 5
v -27 11 4
v -27 12 11
v -27 12 6
v -27 24 10
v -27 24 7
v -27 25 10
v -27 25 7
v -26 11 12
v -26 11 11
v -26 11 6
v -26 11 5
v -26 12 12
v -26 12 11
v -26 12 6
v -26 12 5
v -26 13 11
v -26 13 6
v -26 23 10
v -26 23 7
v -26 24 11
v -26 24 10
v -26 24 7
v -26 24 6
v -26 25 11
v -26 25 10
v -26 25 7
v -26 25 6
v -26 26 10
v -26 26 7
v -25 13 10
v -25 13 7
v -25 23 11
v -25 23 10
v -25 23 7
v -25 23 6
v -25 24 12
v -25 24 11
v -25 24 10
v -25 24 7
v -25 24 6
v -25 24 5
v -25 25 12
v -25 25 11
v -25 25 10
v -25 25 7
v -25 25 6
v -25 25 5
v -25 26 11
v -25 26 10
v -25 26 9
v -25 26 8
v -25 26 7
v -25 26 6
v -25 27 9
v -25 27 8
v -24 26 10
v -24 26 9
v -24 26 8
v -24 26 7
v -24 27 10
v -24 27 9
v -24 27 8
v -24 27 7
v -23 13 9
v -23 13 8
v -23 23 9
v -23 23 8
v -23 25 10
v -23 25 9
v -23 25 8
v -23 25 7
v -23 26 10
v -23 26 9
v -23 26 8
v -23 26 7
v -22 12 10
v -22 12 7
v -22 13 10
v -22 13 7
v -22 23 10
v -22 23 7
v -22 24 11
v -22 24 10
v -22 24 7
v -22 24 6
v -22 25 11
v -22 25 10
v -22 25 9
v -22 25 8
v -22 25 7
v -22 25 6
v -22 26 9
v -22 26 8
v -21 10 12
v -21 10 11
v -21 10 6
v -21 10 5
v -21 11 12
v -21 11 11
v -21 11 6
v -21 11 5
v -21 12 11
v -21 12 6
v -21 24 10
v -21 24 7
v -21 25 10
v -21 25 7
v -20 10 11
v -20 10 6
v -20 11 11
v -20 11 6
v -27 10 11
v -27 10 6
v -27 11 11
v -27 11 6
v -26 10 12
v -26 10 11
v -26 10 6
v -26 10 5
v -26 11 12
v -26 11 11
v -26 11 6
v -26 11 5
v -26 12 11
v -26 12 6
v -26 24 10
v -26 24 7
v -26 25 10
v -26 25 7
v -25 12 10
v -25 12 7
v -25 13 10
v -25 13 7
v -25 23 10
v -25 23 7
v -25 24 11
v -25 24 10
v -25 24 7
v -25 24 6
v -25 25 11
v -25 25 10
v -25 25 9
v -25 25 8
v -25 25 7
v -25 25 6
v -25 26 9
v -25 26 8
v -24 13 9
v -24 13 8
v -24 23 9
v -24 23 8
v -24 25 10
v -24 25 9
v -24 25 8
v -24 25 7
v -24 26 10
v -24 26 9
v -24 26 8
v -24 26 7
v -23 26 10
v -23 26 9
v -23 26 8
v -23 26 7
v -23 27 10
v -23 27 9
v -23 27 8
v -23 27 7
v -22 13 10
v -22 13 7
v -22 23 11
v -22 23 10
v -22 23 7
v -22 23 6
v -22 24 12
v -22 24 11
v -22 24 10
v -22 24 7
v -22 24 6
v -22 24 5
v -22 25 12
v -22 25 11
v -22 25 10
v -22 25 7
v -22 25 6
v -22 25 5
v -22 26 11
v -22 26 10
v -22 26 9
v -22 26 8
v -22 26 7
v -22 26 6
v -22 27 9
v -22 27 8
v -21 11 12
v -21 11 11
v -21 11 6
v -21 11 5
v -21 12 12
v -21 12 11
v -21 12 6
v -21 12 5
v -21 13 11
v -21 13 6
v -21 23 10
v -21 23 7
v -21 24 11
v -21 24 10
v -21 24 7
v -21 24 6
v -21 25 11
v -21 25 10
v -21 25 7
v -21 25 6
v -21 26 10
v -21 26 7
v -20 10 13
v -20 10 12
v -20 10 5
v -20 10 4
v -20 11 13
v -20 11 12
v -20 11 11
v -20 11 6
v -20 11 5
v -20 11 4
v -20 12 11
v -20 12 6
v -20 24 10
v -20 24 7
v -20 25 10
v -20 25 7
v -19 10 12
v -19 10 5
v -19 11 12
v -19 11 5
v -27 10 13
v -27 11 13
v -20 10 13
v -20 11 13
v -28 10 12
v -28 11 12
v -27 10 12
v -27 11 12
v -26 11 12
v -26 12 12
v -25 24 12
v -25 25 12
v -22 24 12
v -22 25 12
v -21 11 12
v -21 12 12
v -20 10 12
v -20 11 12
v -19 10 12
v -19 11 12
v -27 11 11
v -27 12 11
v -26 11 11
v -26 12 11
v -26 13 11
v -26 24 11
v -26 25 11
v -25 23 11
v -25 24 11
v -25 25 11
v -25 26 11
v -22 23 11
v -22 24 11
v -22 25 11
v -22 26 11
v -21 11 11
v -21 12 11
v -21 13 11
v -21 24 11
v -21 25 11
v -20 11 11
v -20 12 11
v -27 24 10
v -27 25 10
v -26 23 10
v -26 24 10
v -26 25 10
v -26 26 10
v -25 13 10
v -25 23 10
v -25 24 10
v -25 25 10
v -25 26 10
v -24 26 10
v -24 27 10
v -23 26 10
v -23 27 10
v -22 13 10
v -22 23 10
v -22 24 10
v -22 25 10
v -22 26 10
v -21 23 10
v -21 24 10
v -21 25 10
v -21 26 10
v -20 24 10
v -20 25 10
v -25 26 9
v -25 27 9
v -24 26 9
v -24 27 9
v -23 26 9
v -23 27 9
v -22 26 9
v -22 27 9
v -25 25 8
v -25 26 8
v -24 13 8
v -24 23 8
v -24 25 8
v -24 26 8
v -23 13 8
v -23 23 8
v -23 25 8
v -23 26 8
v -22 25 8
v -22 26 8
v -26 24 7
v -26 25 7
v -25 12 7
v -25 13 7
v -25 23 7
v -25 24 7
v -25 25 7
v -24 25 7
v -24 26 7
v -23 25 7
v -23 26 7
v -22 12 7
v -22 13 7
v -22 23 7
v -22 24 7
v -22 25 7
v -21 24 7
v -21 25 7
v -27 10 6
v -27 11 6
v -26 10 6
v -26 11 6
v -26 12 6
v -25 24 6
v -25 25 6
v -22 24 6
v -22 25 6
v -21 10 6
v -21 11 6
v -21 12 6
v -20 10 6
v -20 11 6
v -26 10 5
v -26 11 5
v -21 10 5
v -21 11 5
v -26 10 12
v -26 11 12
v -21 10 12
v -21 11 12
v -27 10 11
v -27 11 11
v -26 10 11
v -26 11 11
v -26 12 11
v -25 24 11
v -25 25 11
v -22 24 11
v -22 25 11
v -21 10 11
v -21 11 11
v -21 12 11
v -20 10 11
v -20 11 11
v -26 24 10
v -26 25 10
v -25 12 10
v -25 13 10
v -25 23 10
v -25 24 10
v -25 25 10
v -24 25 10
v -24 26 10
v -23 25 10
v -23 26 10
v -22 12 10
v -22 13 10
v -22 23 10
v -22 24 10
v -22 25 10
v -21 24 10
v -21 25 10
v -25 25 9
v -25 26 9
v -24 13 9
v -24 23 9
v -24 25 9
v -24 26 9
v -23 13 9
v -23 23 9
v -23 25 9
v -23 26 9
v -22 25 9
v -22 26 9
v -25 26 8
v -25 27 8
v -24 26 8
v -24 27 8
v -23 26 8
v -23 27 8
v -22 26 8
v -22 27 8
v -27 24 7
v -27 25 7
v -26 23 7
v -26 24 7
v -26 25 7
v -26 26 7
v -25 13 7
v -25 23 7
v -25 24 7
v -25 25 7
v -25 26 7
v -24 26 7
v -24 27 7
v -23 26 7
v -23 27 7
v -22 13 7
v -22 23 7
v -22 24 7
v -22 25 7
v -22 26 7
v -21 23 7
v -21 24 7
v -21 25 7
v -21 26 7
v -20 24 7
v -20 25 7
v -27 11 6
v -27 12 6
v -26 11 6
v -26 12 6
v -26 13 6
v -26 24 6
v -26 25 6
v -25 23 6
v -25 24 6
v -25 25 6
v -25 26 6
v -22 23 6
v -22 24 6
v -22 25 6
v -22 26 6
v -21 11 6
v -21 12 6
v -21 13 6
v -21 24 6
v -21 25 6
v -20 11 6
v -20 12 6
v -28 10 5
v -28 11 5
v -27 10 5
v -27 11 5
v -26 11 5
v -26 12 5
v -25 24 5
v -25 25 5
v -22 24 5
v -22 25 5
v -21 11 5
v -21 12 5
v -20 10 5
v -20 11 5
v -19 10 5
v -19 11 5
v -27 10 4
v -27 11 4
v -20 10 4
v -20 11 4
v -27 10 13
v -20 10 13
v -28 10 12
v -27 10 12
v -26 10 12
v -21 10 12
v -20 10 12
v -19 10 12
v -27 10 11
v -26 10 11
v -21 10 11
v -20 10 11
v -27 10 6
v -26 10 6
v -21 10 6
v -20 10 6
v -28 10 5
v -27 10 5
v -26 10 5
v -21 10 5
v -20 10 5
v -19 10 5
v -27 10 4
v -20 10 4
v -26 11 12
v -21 11 12
v -27 11 11
v -26 11 11
v -21 11 11
v -20 11 11
v -27 11 6
v -26 11 6
v -21 11 6
v -20 11 6
v -26 11 5
v -21 11 5
v -26 12 11
v -21 12 11
v -25 12 10
v -22 12 10
v -25 12 7
v -22 12 7
v -26 12 6
v -21 12 6
v -25 13 10
v -22 13 10
v -24 13 9
v -23 13 9
v -24 13 8
v -23 13 8
v -25 13 7
v -22 13 7
v -25 23 11
v -22 23 11
v -26 23 10
v -25 23 10
v -22 23 10
v -21 23 10
v -26 23 7
v -25 23 7
v -22 23 7
v -21 23 7
v -25 23 6
v -22 23 6
v -25 24 12
v -22 24 12
v -26 24 11
v -25 24 11
v -22 24 11
v -21 24 11
v -27 24 10
v -26 24 10
v -25 24 10
v -22 24 10
v -21 24 10
v -20 24 10
v -27 24 7
v -26 24 7
v -25 24 7
v -22 24 7
v -21 24 7
v -20 24 7
v -26 24 6
v -25 24 6
v -22 24 6
v -21 24 6
v -25 24 5
v -22 24 5
v -25 25 11
v -22 25 11
v -26 25 10
v -25 25 10
v -24 25 10
v -23 25 10
v -22 25 10
v -21 25 10
v -25 25 9
v -24 25 9
v -23 25 9
v -22 25 9
v -25 25 8
v -24 25 8
v -23 25 8
v -22 25 8
v -26 25 7
v -25 25 7
v -24 25 7
v -23 25 7
v -22 25 7
v -21 25 7
v -25 25 6
v -22 25 6
v -24 26 10
v -23 26 10
v -25 26 9
v -24 26 9
v -23 26 9
v -22 26 9
v -25 26 8
v -24 26 8
v -23 26 8
v -22 26 8
v -24 26 7
v -23 26 7
v -27 11 13
v -20 11 13
v -28 11 12
v -27 11 12
v -26 11 12
v -21 11 12
v -20 11 12
v -19 11 12
v -27 11 11
v -26 11 11
v -21 11 11
v -20 11 11
v -27 11 6
v -26 11 6
v -21 11 6
v -20 11 6
v -28 11 5
v -27 11 5
v -26 11 5
v -21 11 5
v -20 11 5
v -19 11 5
v -27 11 4
v -20 11 4
v -26 12 12
v -21 12 12
v -27 12 11
v -26 12 11
v -21 12 11
v -20 12 11
v -27 12 6
v -26 12 6
v -21 12 6
v -20 12 6
v -26 12 5
v -21 12 5
v -26 13 11
v -21 13 11
v -25 13 10
v -22 13 10
v -25 13 7
v -22 13 7
v -26 13 6
v -21 13 6
v -25 23 10
v -22 23 10
v -24 23 9
v -23 23 9
v -24 23 8
v -23 23 8
v -25 23 7
v -22 23 7
v -25 24 11
v -22 24 11
v -26 24 10
v -25 24 10
v -22 24 10
v -21 24 10
v -26 24 7
v -25 24 7
v -22 24 7
v -21 24 7
v -25 24 6
v -22 24 6
v -25 25 12
v -22 25 12
v -26 25 11
v -25 25 11
v -22 25 11
v -21 25 11
v -27 25 10
v -26 25 10
v -25 25 10
v -22 25 10
v -21 25 10
v -20 25 10
v -27 25 7
v -26 25 7
v -25 25 7
v -22 25 7
v -21 25 7
v -20 25 7
v -26 25 6
v -25 25 6
v -22 25 6
v -21 25 6
v -25 25 5
v -22 25 5
v -25 26 11
v -22 26 11
v -26 26 10
v -25 26 10
v -24 26 10
v -23 26 10
v -22 26 10
v -21 26 10
v -25 26 9
v -24 26 9
v -23 26 9
v -22 26 9
v -25 26 8
v -24 26 8
v -23 26 8
v -22 26 8
v -26 26 7
v -25 26 7
v -24 26 7
v -23 26 7
v -22 26 7
v -21 26 7
v -25 26 6
v -22 26 6
v -24 27 10
v -23 27 10
v -25 27 9
v -24 27 9
v -23 27 9
v -22 27 9
v -25 27 8
v -24 27 8
v -23 27 8
v -22 27 8
v -24 27 7
v -23 27 7

# faces
f 3/3/1 2/3/1 1/3/1
f 4/3/1 2/3/1 3/3/1
f 9/3/1 6/3/1 5/3/1
f 10/3/1 6/3/1 9/3/1
f 13/3/1 8/3/1 7/3/1
f 14/3/1 8/3/1 13/3/1
f 15/2/1 12/2/1 11/2/1
f 16/2/1 12/2/1 15/2/1
f 19/2/1 18/2/1 17/2/1
f 20/2/1 18/2/1 19/2/1
f 25/2/1 22/2/1 21/2/1
f 26/2/1 22/2/1 25/2/1
f 27/2/1 24/2/1 23/2/1
f 28/2/1 24/2/1 27/2/1
f 29/3/1 27/3/1 26/3/1
f 30/3/1 27/3/1 29/3/1
f 34/3/1 32/3/1 31/3/1
f 35/3/1 32/3/1 34/3/1
f 37/2/1 34/2/1 33/2/1
f 38/2/1 34/2/1 37/2/1
f 39/2/1 36/2/1 35/2/1
f 40/2/1 36/2/1 39/2/1
f 41/3/1 39/3/1 38/3/1
f 42/3/1 39/3/1 41/3/1
f 46/3/1 44/3/1 43/3/1
f 47/3/1 44/3/1 46/3/1
f 50/3/1 46/3/1 45/3/1
f 51/3/1 46/3/1 50/3/1
f 52/3/1 48/3/1 47/3/1
f 53/3/1 48/3/1 52/3/1
f 55/2/1 50/2/1 49/2/1
f 56/2/1 50/2/1 55/2/1
f 59/2/1 54/2/1 53/2/1
f 60/2/1 54/2/1 59/2/1
f 61/3/1 57/3/1 56/3/1
f 62/3/1 57/3/1 61/3/1
f 65/3/1 59/3/1 58/3/1
f 66/3/1 59/3/1 65/3/1
f 67/1/1 64/1/1 63/1/1
f 68/1/1 64/1/1 67/1/1
f 73/1/1 70/1/1 69/1/1
f 74/1/1 70/1/1 73/1/1
f 75/1/1 72/1/1 71/1/1
f 76/1/1 72/1/1 75/1/1
f 79/3/1 78/3/1 77/3/1
f 80/3/1 78/3/1 79/3/1
f 85/3/1 82/3/1 81/3/1
f 86/3/1 82/3/1 85/3/1
f 87/3/1 84/3/1 83/3/1
f 88/3/1 84/3/1 87/3/1
f 91/3/1 90/3/1 89/3/1
f 92/3/1 90/3/1 91/3/1
f 96/3/1 94/3/1 93/3/1
f 97/3/1 94/3/1 96/3/1
f 99/2/1 96/2/1 95/2/1
f 100/2/1 96/2/1 99/2/1
f 103/2/1 98/2/1 97/2/1
f 104/2/1 98/2/1 103/2/1
f 105/3/1 102/3/1 101/3/1
f 106/3/1 102/3/1 105/3/1
f 111/3/1 108/3/1 107/3/1
f 112/3/1 108/3/1 111/3/1
f 113/3/1 110/3/1 109/3/1
f 114/3/1 110/3/1 113/3/1
f 115/2/1 113/2/1 112/2/1
f 116/2/1 113/2/1 115/2/1
f 119/2/1 118/2/1 117/2/1
f 120/2/1 118/2/1 119/2/1
f 123/3/1 122/3/1 121/3/1
f 124/3/1 122/3/1 123/3/1
f 125/3/2 126/3/2 127/3/2
f 127/3/2 126/3/2 128/3/2
f 129/3/2 130/3/2 133/3/2
f 133/3/2 130/3/2 134/3/2
f 131/3/2 132/3/2 135/3/2
f 135/3/2 132/3/2 136/3/2
f 134/2/2 135/2/2 137/2/2
f 137/2/2 135/2/2 138/2/2
f 139/2/2 140/2/2 141/2/2
f 141/2/2 140/2/2 142/2/2
f 143/3/2 144/3/2 145/3/2
f 145/3/2 144/3/2 146/3/2
f 147/3/2 148/3/2 150/3/2
f 150/3/2 148/3/2 151/3/2
f 149/2/2 150/2/2 153/2/2
f 153/2/2 150/2/2 154/2/2
f 151/2/2 152/2/2 157/2/2
f 157/2/2 152/2/2 158/2/2
f 155/3/2 156/3/2 159/3/2
f 159/3/2 156/3/2 160/3/2
f 161/3/2 162/3/2 163/3/2
f 163/3/2 162/3/2 164/3/2
f 165/3/2 166/3/2 169/3/2
f 169/3/2 166/3/2 170/3/2
f 167/3/2 168/3/2 171/3/2
f 171/3/2 168/3/2 172/3/2
f 173/1/2 174/1/2 177/1/2
f 177/1/2 174/1/2 178/1/2
f 175/1/2 176/1/2 179/1/2
f 179/1/2 176/1/2 180/1/2
f 181/3/2 182/3/2 184/3/2
f 184/3/2 182/3/2 185/3/2
f 183/3/2 184/3/2 188/3/2
f 188/3/2 184/3/2 189/3/2
f 185/3/2 186/3/2 190/3/2
f 190/3/2 186/3/2 191/3/2
f 187/2/2 188/2/2 193/2/2
f 193/2/2 188/2/2 194/2/2
f 191/2/2 192/2/2 197/2/2
f 197/2/2 192/2/2 198/2/2
f 194/3/2 195/3/2 199/3/2
f 199/3/2 195/3/2 200/3/2
f 196/3/2 197/3/2 203/3/2
f 203/3/2 197/3/2 204/3/2
f 201/1/2 202/1/2 205/1/2
f 205/1/2 202/1/2 206/1/2
f 207/2/2 208/2/2 211/2/2
f 211/2/2 208/2/2 212/2/2
f 209/2/2 210/2/2 213/2/2
f 213/2/2 210/2/2 214/2/2
f 212/3/2 213/3/2 215/3/2
f 215/3/2 213/3/2 216/3/2
f 217/3/2 218/3/2 220/3/2
f 220/3/2 218/3/2 221/3/2
f 219/2/2 220/2/2 223/2/2
f 223/2/2 220/2/2 224/2/2
f 221/2/2 222/2/2 225/2/2
f 225/2/2 222/2/2 226/2/2
f 224/3/2 225/3/2 227/3/2
f 227/3/2 225/3/2 228/3/2
f 229/3/2 230/3/2 233/3/2
f 233/3/2 230/3/2 234/3/2
f 231/3/2 232/3/2 237/3/2
f 237/3/2 232/3/2 238/3/2
f 235/2/2 236/2/2 239/2/2
f 239/2/2 236/2/2 240/2/2
f 241/2/2 242/2/2 243/2/2
f 243/2/2 242/2/2 244/2/2
f 245/3/2 246/3/2 247/3/2
f 247/3/2 246/3/2 248/3/2
f 251/3/3 250/3/3 249/3/3
f 252/3/3 250/3/3 251/3/3
f 255/3/3 254/3/3 253/3/3
f 256/3/3 254/3/3 255/3/3
f 261/2/3 260/2/3 259/2/3
f 262/2/3 260/2/3 261/2/3
f 263/2/3 258/2/3 257/2/3
f 264/2/3 258/2/3 263/2/3
f 267/3/3 266/3/3 265/3/3
f 268/3/3 266/3/3 267/3/3
f 271/2/3 270/2/3 269/2/3
f 272/2/3 270/2/3 271/2/3
f 277/2/3 275/2/3 274/2/3
f 278/2/3 275/2/3 277/2/3
f 280/3/3 277/3/3 276/3/3
f 281/3/3 277/3/3 280/3/3
f 282/3/3 279/3/3 278/3/3
f 283/3/3 279/3/3 282/3/3
f 285/3/3 273/3/3 272/3/3
f 286/3/3 273/3/3 285/3/3
f 287/2/3 282/2/3 281/2/3
f 288/2/3 282/2/3 287/2/3
f 289/2/3 285/2/3 284/2/3
f 290/2/3 285/2/3 289/2/3
f 294/2/3 292/2/3 291/2/3
f 295/2/3 292/2/3 294/2/3
f 298/3/3 294/3/3 293/3/3
f 299/3/3 294/3/3 298/3/3
f 300/3/3 296/3/3 295/3/3
f 301/3/3 296/3/3 300/3/3
f 304/1/3 303/1/3 302/1/3
f 305/1/3 303/1/3 304/1/3
f 306/3/3 298/3/3 297/3/3
f 307/3/3 298/3/3 306/3/3
f 311/3/3 308/3/3 307/3/3
f 312/3/3 308/3/3 311/3/3
f 313/3/3 310/3/3 309/3/3
f 314/3/3 310/3/3 313/3/3
f 315/2/3 313/2/3 312/2/3
f 316/2/3 313/2/3 315/2/3
f 319/1/3 318/1/3 317/1/3
f 320/1/3 318/1/3 319/1/3
f 323/1/3 322/1/3 321/1/3
f 324/1/3 322/1/3 323/1/3
f 329/3/3 326/3/3 325/3/3
f 330/3/3 326/3/3 329/3/3
f 331/3/3 328/3/3 327/3/3
f 332/3/3 328/3/3 331/3/3
f 335/3/3 334/3/3 333/3/3
f 336/3/3 334/3/3 335/3/3
f 342/2/3 338/2/3 337/2/3
f 343/2/3 338/2/3 342/2/3
f 346/3/3 345/3/3 344/3/3
f 347/3/3 345/3/3 346/3/3
f 348/3/3 340/3/3 339/3/3
f 349/3/3 340/3/3 348/3/3
f 350/3/3 342/3/3 341/3/3
f 351/3/3 342/3/3 350/3/3
f 353/2/3 352/2/3 351/2/3
f 354/2/3 352/2/3 353/2/3
f 357/3/3 356/3/3 355/3/3
f 358/3/3 356/3/3 357/3/3
f 362/2/3 361/2/3 360/2/3
f 363/2/3 361/2/3 362/2/3
f 365/2/3 359/2/3 358/2/3
f 366/2/3 359/2/3 365/2/3
f 367/3/3 365/3/3 364/3/3
f 368/3/3 365/3/3 367/3/3
f 371/3/3 370/3/3 369/3/3
f 372/3/3 370/3/3 371/3/3
f 373/3/4 374/3/4 375/3/4
f 375/3/4 374/3/4 376/3/4
f 377/3/4 378/3/4 379/3/4
f 379/3/4 378/3/4 380/3/4
f 382/2/4 383/2/4 384/2/4
f 384/2/4 383/2/4 385/2/4
f 380/2/4 381/2/4 387/2/4
f 387/2/4 381/2/4 388/2/4
f 386/3/4 387/3/4 389/3/4
f 389/3/4 387/3/4 390/3/4
f 391/2/4 392/2/4 396/2/4
f 396/2/4 392/2/4 397/2/4
f 398/3/4 399/3/4 400/3/4
f 400/3/4 399/3/4 401/3/4
f 393/3/4 394/3/4 402/3/4
f 402/3/4 394/3/4 403/3/4
f 395/3/4 396/3/4 404/3/4
f 404/3/4 396/3/4 405/3/4
f 405/2/4 406/2/4 407/2/4
f 407/2/4 406/2/4 408/2/4
f 409/3/4 410/3/4 413/3/4
f 413/3/4 410/3/4 414/3/4
f 411/3/4 412/3/4 415/3/4
f 415/3/4 412/3/4 416/3/4
f 417/3/4 418/3/4 419/3/4
f 419/3/4 418/3/4 420/3/4
f 421/1/4 422/1/4 423/1/4
f 423/1/4 422/1/4 424/1/4
f 425/1/4 426/1/4 427/1/4
f 427/1/4 426/1/4 428/1/4
f 429/2/4 430/2/4 432/2/4
f 432/2/4 430/2/4 433/2/4
f 431/3/4 432/3/4 436/3/4
f 436/3/4 432/3/4 437/3/4
f 433/3/4 434/3/4 438/3/4
f 438/3/4 434/3/4 439/3/4
f 440/1/4 441/1/4 442/1/4
f 442/1/4 441/1/4 443/1/4
f 435/3/4 436/3/4 444/3/4
f 444/3/4 436/3/4 445/3/4
f 445/3/4 446/3/4 449/3/4
f 449/3/4 446/3/4 450/3/4
f 447/3/4 448/3/4 451/3/4
f 451/3/4 448/3/4 452/3/4
f 450/2/4 451/2/4 453/2/4
f 453/2/4 451/2/4 454/2/4
f 455/2/4 456/2/4 457/2/4
f 457/2/4 456/2/4 458/2/4
f 460/2/4 461/2/4 463/2/4
f 463/2/4 461/2/4 464/2/4
f 462/3/4 463/3/4 466/3/4
f 466/3/4 463/3/4 467/3/4
f 464/3/4 465/3/4 468/3/4
f 468/3/4 465/3/4 469/3/4
f 458/3/4 459/3/4 471/3/4
f 471/3/4 459/3/4 472/3/4
f 467/2/4 468/2/4 473/2/4
f 473/2/4 468/2/4 474/2/4
f 470/2/4 471/2/4 475/2/4
f 475/2/4 471/2/4 476/2/4
f 477/3/4 478/3/4 479/3/4
f 479/3/4 478/3/4 480/3/4
f 483/2/4 484/2/4 485/2/4
f 485/2/4 484/2/4 486/2/4
f 481/2/4 482/2/4 487/2/4
f 487/2/4 482/2/4 488/2/4
f 489/3/4 490/3/4 491/3/4
f 491/3/4 490/3/4 492/3/4
f 493/3/4 494/3/4 495/3/4
f 495/3/4 494/3/4 496/3/4
f 500/3/5 498/3/5 497/3/5
f 501/3/5 498/3/5 500/3/5
f 502/3/5 498/3/5 501/3/5
f 503/3/5 498/3/5 502/3/5
f 505/3/5 500/3/5 499/3/5
f 505/3/5 501/3/5 500/3/5
f 506/3/5 501/3/5 505/3/5
f 507/3/5 504/3/5 503/3/5
f 507/3/5 503/3/5 502/3/5
f 508/3/5 504/3/5 507/3/5
f 509/3/5 505/3/5 499/3/5
f 512/3/5 504/3/5 508/3/5
f 513/3/5 510/3/5 509/3/5
f 513/3/5 509/3/5 499/3/5
f 514/3/5 510/3/5 513/3/5
f 515/3/5 510/3/5 514/3/5
f 516/3/5 512/3/5 511/3/5
f 517/3/5 504/3/5 512/3/5
f 517/3/5 512/3/5 516/3/5
f 518/3/5 504/3/5 517/3/5
f 519/3/5 515/3/5 514/3/5
f 519/3/5 516/3/5 515/3/5
f 519/3/5 517/3/5 516/3/5
f 520/3/5 517/3/5 519/3/5
f 524/2/5 522/2/5 521/2/5
f 525/2/5 522/2/5 524/2/5
f 527/2/5 524/2/5 523/2/5
f 528/2/5 524/2/5 527/2/5
f 529/2/5 526/2/5 525/2/5
f 530/2/5 526/2/5 529/2/5
f 531/2/5 529/2/5 528/2/5
f 532/2/5 529/2/5 531/2/5
f 535/3/5 534/3/5 533/3/5
f 536/3/5 534/3/5 535/3/5
f 537/3/5 535/3/5 533/3/5
f 538/3/5 534/3/5 536/3/5
f 539/3/5 537/3/5 533/3/5
f 539/3/5 538/3/5 537/3/5
f 540/3/5 534/3/5 538/3/5
f 540/3/5 538/3/5 539/3/5
f 543/3/5 542/3/5 541/3/5
f 544/3/5 542/3/5 543/3/5
f 545/3/5 543/3/5 541/3/5
f 546/3/5 542/3/5 544/3/5
f 547/3/5 545/3/5 541/3/5
f 547/3/5 546/3/5 545/3/5
f 548/3/5 542/3/5 546/3/5
f 548/3/5 546/3/5 547/3/5
f 552/3/5 550/3/5 549/3/5
f 553/3/5 550/3/5 552/3/5
f 555/3/5 552/3/5 551/3/5
f 556/3/5 552/3/5 555/3/5
f 557/3/5 554/3/5 553/3/5
f 558/3/5 554/3/5 557/3/5
f 559/3/5 557/3/5 556/3/5
f 560/3/5 557/3/5 559/3/5
f 564/2/5 562/2/5 561/2/5
f 565/2/5 562/2/5 564/2/5
f 568/2/5 564/2/5 563/2/5
f 569/2/5 564/2/5 568/2/5
f 570/2/5 566/2/5 565/2/5
f 571/2/5 566/2/5 570/2/5
f 573/2/5 568/2/5 567/2/5
f 574/2/5 568/2/5 573/2/5
f 577/2/5 572/2/5 571/2/5
f 578/2/5 572/2/5 577/2/5
f 579/2/5 575/2/5 574/2/5
f 580/2/5 575/2/5 579/2/5
f 581/2/5 577/2/5 576/2/5
f 582/2/5 577/2/5 581/2/5
f 583/2/5 581/2/5 580/2/5
f 584/2/5 581/2/5 583/2/5
f 588/3/5 586/3/5 585/3/5
f 589/3/5 586/3/5 588/3/5
f 590/3/5 586/3/5 589/3/5
f 591/3/5 586/3/5 590/3/5
f 593/3/5 588/3/5 587/3/5
f 593/3/5 589/3/5 588/3/5
f 594/3/5 589/3/5 593/3/5
f 595/3/5 592/3/5 591/3/5
f 595/3/5 591/3/5 590/3/5
f 596/3/5 592/3/5 595/3/5
f 597/3/5 593/3/5 587/3/5
f 600/3/5 592/3/5 596/3/5
f 601/3/5 598/3/5 597/3/5
f 601/3/5 597/3/5 587/3/5
f 602/3/5 598/3/5 601/3/5
f 603/3/5 598/3/5 602/3/5
f 604/3/5 600/3/5 599/3/5
f 605/3/5 592/3/5 600/3/5
f 605/3/5 600/3/5 604/3/5
f 606/3/5 592/3/5 605/3/5
f 607/3/5 603/3/5 602/3/5
f 607/3/5 604/3/5 603/3/5
f 607/3/5 605/3/5 604/3/5
f 608/3/5 605/3/5 607/3/5
f 612/1/5 610/1/5 609/1/5
f 613/1/5 610/1/5 612/1/5
f 615/1/5 612/1/5 611/1/5
f 615/1/5 614/1/5 613/1/5
f 615/1/5 613/1/5 612/1/5
f 616/1/5 614/1/5 615/1/5
f 617/1/5 614/1/5 616/1/5
f 618/1/5 614/1/5 617/1/5
f 619/1/5 617/1/5 616/1/5
f 620/1/5 617/1/5 619/1/5
f 621/3/6 622/3/6 624/3/6
f 624/3/6 622/3/6 625/3/6
f 625/3/6 622/3/6 626/3/6
f 626/3/6 622/3/6 627/3/6
f 623/3/6 624/3/6 629/3/6
f 624/3/6 625/3/6 629/3/6
f 629/3/6 625/3/6 630/3/6
f 627/3/6 628/3/6 631/3/6
f 626/3/6 627/3/6 631/3/6
f 631/3/6 628/3/6 632/3/6
f 623/3/6 629/3/6 633/3/6
f 632/3/6 628/3/6 636/3/6
f 633/3/6 634/3/6 637/3/6
f 623/3/6 633/3/6 637/3/6
f 637/3/6 634/3/6 638/3/6
f 638/3/6 634/3/6 639/3/6
f 635/3/6 636/3/6 640/3/6
f 636/3/6 628/3/6 641/3/6
f 640/3/6 636/3/6 641/3/6
f 641/3/6 628/3/6 642/3/6
f 638/3/6 639/3/6 643/3/6
f 639/3/6 640/3/6 643/3/6
f 640/3/6 641/3/6 643/3/6
f 643/3/6 641/3/6 644/3/6
f 645/2/6 646/2/6 648/2/6
f 648/2/6 646/2/6 649/2/6
f 647/2/6 648/2/6 651/2/6
f 651/2/6 648/2/6 652/2/6
f 649/2/6 650/2/6 653/2/6
f 653/2/6 650/2/6 654/2/6
f 652/2/6 653/2/6 655/2/6
f 655/2/6 653/2/6 656/2/6
f 657/3/6 658/3/6 659/3/6
f 659/3/6 658/3/6 660/3/6
f 657/3/6 659/3/6 661/3/6
f 660/3/6 658/3/6 662/3/6
f 657/3/6 661/3/6 663/3/6
f 661/3/6 662/3/6 663/3/6
f 662/3/6 658/3/6 664/3/6
f 663/3/6 662/3/6 664/3/6
f 665/3/6 666/3/6 667/3/6
f 667/3/6 666/3/6 668/3/6
f 665/3/6 667/3/6 669/3/6
f 668/3/6 666/3/6 670/3/6
f 665/3/6 669/3/6 671/3/6
f 669/3/6 670/3/6 671/3/6
f 670/3/6 666/3/6 672/3/6
f 671/3/6 670/3/6 672/3/6
f 673/3/6 674/3/6 676/3/6
f 676/3/6 674/3/6 677/3/6
f 675/3/6 676/3/6 679/3/6
f 679/3/6 676/3/6 680/3/6
f 677/3/6 678/3/6 681/3/6
f 681/3/6 678/3/6 682/3/6
f 680/3/6 681/3/6 683/3/6
f 683/3/6 681/3/6 684/3/6
f 685/2/6 686/2/6 688/2/6
f 688/2/6 686/2/6 689/2/6
f 687/2/6 688/2/6 692/2/6
f 692/2/6 688/2/6 693/2/6
f 689/2/6 690/2/6 694/2/6
f 694/2/6 690/2/6 695/2/6
f 691/2/6 692/2/6 697/2/6
f 697/2/6 692/2/6 698/2/6
f 695/2/6 696/2/6 701/2/6
f 701/2/6 696/2/6 702/2/6
f 698/2/6 699/2/6 703/2/6
f 703/2/6 699/2/6 704/2/6
f 700/2/6 701/2/6 705/2/6
f 705/2/6 701/2/6 706/2/6
f 704/2/6 705/2/6 707/2/6
f 707/2/6 705/2/6 708/2/6
f 709/3/6 710/3/6 712/3/6
f 712/3/6 710/3/6 713/3/6
f 713/3/6 710/3/6 714/3/6
f 714/3/6 710/3/6 715/3/6
f 711/3/6 712/3/6 717/3/6
f 712/3/6 713/3/6 717/3/6
f 717/3/6 713/3/6 718/3/6
f 715/3/6 716/3/6 719/3/6
f 714/3/6 715/3/6 719/3/6
f 719/3/6 716/3/6 720/3/6
f 711/3/6 717/3/6 721/3/6
f 720/3/6 716/3/6 724/3/6
f 721/3/6 722/3/6 725/3/6
f 711/3/6 721/3/6 725/3/6
f 725/3/6 722/3/6 726/3/6
f 726/3/6 722/3/6 727/3/6
f 723/3/6 724/3/6 728/3/6
f 724/3/6 716/3/6 729/3/6
f 728/3/6 724/3/6 729/3/6
f 729/3/6 716/3/6 730/3/6
f 726/3/6 727/3/6 731/3/6
f 727/3/6 728/3/6 731/3/6
f 728/3/6 729/3/6 731/3/6
f 731/3/6 729/3/6 732/3/6
f 733/1/6 734/1/6 736/1/6
f 736/1/6 734/1/6 737/1/6
f 735/1/6 736/1/6 739/1/6
f 737/1/6 738/1/6 739/1/6
f 736/1/6 737/1/6 739/1/6
f 739/1/6 738/1/6 740/1/6
f 740/1/6 738/1/6 741/1/6
f 741/1/6 738/1/6 742/1/6
f 740/1/6 741/1/6 743/1/6
f 743/1/6 741/1/6 744/1/6
